<mxfile host="app.diagrams.net" modified="2023-11-10T11:18:40.056Z" agent="Mozilla/5.0 (X11; Linux x86_64) AppleWebKit/537.36 (KHTML, like Gecko) Chrome/118.0.0.0 Safari/537.36" etag="sG2tFURBm7yAPNrgFTpr" version="22.1.0" type="google">
  <diagram name="Page-1" id="LFPTANppGhLL8jyjeKuy">
    <mxGraphModel grid="1" page="1" gridSize="10" guides="1" tooltips="1" connect="1" arrows="1" fold="1" pageScale="1" pageWidth="850" pageHeight="1100" math="0" shadow="0">
      <root>
        <mxCell id="0" />
        <mxCell id="1" parent="0" />
        <mxCell id="OHMnWLt_MxitojmKM6Za-2" value="&lt;b&gt;NFT-Collection&lt;br&gt;&lt;/b&gt;(create NFT logic,&lt;br&gt;state NFT tracker: is borroed, is in automated fight...)" style="whiteSpace=wrap;html=1;aspect=fixed;" vertex="1" parent="1">
          <mxGeometry x="280" y="310" width="130" height="130" as="geometry" />
        </mxCell>
        <mxCell id="OHMnWLt_MxitojmKM6Za-10" value="&lt;b&gt;Lens Contracts ??&lt;/b&gt;" style="whiteSpace=wrap;html=1;aspect=fixed;" vertex="1" parent="1">
          <mxGeometry x="50" y="290" width="120" height="120" as="geometry" />
        </mxCell>
        <mxCell id="OHMnWLt_MxitojmKM6Za-11" value="" style="endArrow=classic;startArrow=classic;html=1;rounded=0;exitX=0;exitY=0.5;exitDx=0;exitDy=0;entryX=0.5;entryY=1;entryDx=0;entryDy=0;" edge="1" parent="1" source="OHMnWLt_MxitojmKM6Za-5" target="OHMnWLt_MxitojmKM6Za-2">
          <mxGeometry width="50" height="50" relative="1" as="geometry">
            <mxPoint x="400" y="310" as="sourcePoint" />
            <mxPoint x="450" y="260" as="targetPoint" />
          </mxGeometry>
        </mxCell>
        <mxCell id="OHMnWLt_MxitojmKM6Za-12" value="" style="endArrow=classic;html=1;rounded=0;entryX=-0.008;entryY=0.562;entryDx=0;entryDy=0;entryPerimeter=0;exitX=1;exitY=0.5;exitDx=0;exitDy=0;" edge="1" parent="1" source="OHMnWLt_MxitojmKM6Za-10" target="OHMnWLt_MxitojmKM6Za-2">
          <mxGeometry width="50" height="50" relative="1" as="geometry">
            <mxPoint x="400" y="310" as="sourcePoint" />
            <mxPoint x="450" y="260" as="targetPoint" />
          </mxGeometry>
        </mxCell>
        <mxCell id="OHMnWLt_MxitojmKM6Za-13" value="&lt;b&gt;PROXY&lt;br&gt;&lt;/b&gt;(only 1 address, better front-end developer experience?)" style="whiteSpace=wrap;html=1;aspect=fixed;" vertex="1" parent="1">
          <mxGeometry x="540" y="220" width="120" height="120" as="geometry" />
        </mxCell>
        <mxCell id="OHMnWLt_MxitojmKM6Za-14" value="" style="endArrow=classic;html=1;rounded=0;exitX=0.5;exitY=1;exitDx=0;exitDy=0;entryX=0.5;entryY=0;entryDx=0;entryDy=0;" edge="1" parent="1" source="OHMnWLt_MxitojmKM6Za-13" target="OHMnWLt_MxitojmKM6Za-2">
          <mxGeometry width="50" height="50" relative="1" as="geometry">
            <mxPoint x="400" y="310" as="sourcePoint" />
            <mxPoint x="450" y="260" as="targetPoint" />
          </mxGeometry>
        </mxCell>
        <mxCell id="OHMnWLt_MxitojmKM6Za-15" value="" style="endArrow=classic;html=1;rounded=0;entryX=0.5;entryY=0;entryDx=0;entryDy=0;exitX=0.5;exitY=1;exitDx=0;exitDy=0;" edge="1" parent="1" source="OHMnWLt_MxitojmKM6Za-13" target="OHMnWLt_MxitojmKM6Za-3">
          <mxGeometry width="50" height="50" relative="1" as="geometry">
            <mxPoint x="400" y="310" as="sourcePoint" />
            <mxPoint x="450" y="260" as="targetPoint" />
          </mxGeometry>
        </mxCell>
        <mxCell id="OHMnWLt_MxitojmKM6Za-16" value="" style="endArrow=classic;html=1;rounded=0;exitX=0.5;exitY=1;exitDx=0;exitDy=0;entryX=0.5;entryY=0;entryDx=0;entryDy=0;" edge="1" parent="1" source="OHMnWLt_MxitojmKM6Za-13" target="OHMnWLt_MxitojmKM6Za-5">
          <mxGeometry width="50" height="50" relative="1" as="geometry">
            <mxPoint x="400" y="310" as="sourcePoint" />
            <mxPoint x="450" y="260" as="targetPoint" />
          </mxGeometry>
        </mxCell>
        <mxCell id="OHMnWLt_MxitojmKM6Za-17" value="&lt;b&gt;FRONT-END&lt;br&gt;&lt;/b&gt;(website)" style="ellipse;whiteSpace=wrap;html=1;" vertex="1" parent="1">
          <mxGeometry x="270" y="60" width="120" height="80" as="geometry" />
        </mxCell>
        <mxCell id="OHMnWLt_MxitojmKM6Za-18" value="" style="endArrow=classic;startArrow=classic;html=1;rounded=0;entryX=0.5;entryY=1;entryDx=0;entryDy=0;exitX=0.5;exitY=0;exitDx=0;exitDy=0;" edge="1" parent="1" source="OHMnWLt_MxitojmKM6Za-13" target="OHMnWLt_MxitojmKM6Za-17">
          <mxGeometry width="50" height="50" relative="1" as="geometry">
            <mxPoint x="400" y="310" as="sourcePoint" />
            <mxPoint x="450" y="260" as="targetPoint" />
          </mxGeometry>
        </mxCell>
        <mxCell id="OHMnWLt_MxitojmKM6Za-19" value="&lt;b&gt;ENS-AccountsManager&lt;/b&gt;" style="whiteSpace=wrap;html=1;aspect=fixed;" vertex="1" parent="1">
          <mxGeometry x="40" y="690" width="120" height="120" as="geometry" />
        </mxCell>
        <mxCell id="OHMnWLt_MxitojmKM6Za-20" value="" style="endArrow=classic;html=1;rounded=0;exitX=0.5;exitY=1;exitDx=0;exitDy=0;entryX=1;entryY=0;entryDx=0;entryDy=0;" edge="1" parent="1" source="OHMnWLt_MxitojmKM6Za-13" target="OHMnWLt_MxitojmKM6Za-19">
          <mxGeometry width="50" height="50" relative="1" as="geometry">
            <mxPoint x="400" y="550" as="sourcePoint" />
            <mxPoint x="450" y="500" as="targetPoint" />
          </mxGeometry>
        </mxCell>
        <mxCell id="OHMnWLt_MxitojmKM6Za-21" value="" style="endArrow=classic;html=1;rounded=0;exitX=0;exitY=0.5;exitDx=0;exitDy=0;entryX=1;entryY=0.5;entryDx=0;entryDy=0;" edge="1" parent="1" source="OHMnWLt_MxitojmKM6Za-5" target="OHMnWLt_MxitojmKM6Za-19">
          <mxGeometry width="50" height="50" relative="1" as="geometry">
            <mxPoint x="400" y="550" as="sourcePoint" />
            <mxPoint x="450" y="500" as="targetPoint" />
          </mxGeometry>
        </mxCell>
        <mxCell id="OHMnWLt_MxitojmKM6Za-22" value="&lt;b&gt;The Graph &lt;br&gt;&lt;/b&gt;(for easier track of smart contract events in reactive front-end)" style="ellipse;whiteSpace=wrap;html=1;" vertex="1" parent="1">
          <mxGeometry x="20" y="60" width="130" height="100" as="geometry" />
        </mxCell>
        <mxCell id="OHMnWLt_MxitojmKM6Za-23" value="" style="endArrow=classic;html=1;rounded=0;entryX=1;entryY=0.5;entryDx=0;entryDy=0;exitX=0;exitY=0.5;exitDx=0;exitDy=0;" edge="1" parent="1" source="OHMnWLt_MxitojmKM6Za-17" target="OHMnWLt_MxitojmKM6Za-22">
          <mxGeometry width="50" height="50" relative="1" as="geometry">
            <mxPoint x="400" y="310" as="sourcePoint" />
            <mxPoint x="450" y="260" as="targetPoint" />
          </mxGeometry>
        </mxCell>
        <mxCell id="OHMnWLt_MxitojmKM6Za-24" value="" style="endArrow=none;dashed=1;html=1;rounded=0;" edge="1" parent="1">
          <mxGeometry width="50" height="50" relative="1" as="geometry">
            <mxPoint y="200" as="sourcePoint" />
            <mxPoint x="850" y="200" as="targetPoint" />
          </mxGeometry>
        </mxCell>
        <mxCell id="OHMnWLt_MxitojmKM6Za-25" value="User" style="shape=umlActor;verticalLabelPosition=bottom;verticalAlign=top;html=1;outlineConnect=0;" vertex="1" parent="1">
          <mxGeometry x="500" y="10" width="30" height="60" as="geometry" />
        </mxCell>
        <mxCell id="OHMnWLt_MxitojmKM6Za-27" value="" style="endArrow=classic;html=1;rounded=0;entryX=1.008;entryY=0.325;entryDx=0;entryDy=0;entryPerimeter=0;" edge="1" parent="1" source="OHMnWLt_MxitojmKM6Za-25" target="OHMnWLt_MxitojmKM6Za-17">
          <mxGeometry width="50" height="50" relative="1" as="geometry">
            <mxPoint x="400" y="310" as="sourcePoint" />
            <mxPoint x="450" y="260" as="targetPoint" />
          </mxGeometry>
        </mxCell>
        <mxCell id="OHMnWLt_MxitojmKM6Za-28" value="&lt;font style=&quot;font-size: 23px;&quot;&gt;Mainchain safer chain (Ethereum)&lt;/font&gt;" style="text;html=1;align=center;verticalAlign=middle;resizable=0;points=[];autosize=1;strokeColor=none;fillColor=none;" vertex="1" parent="1">
          <mxGeometry x="170" y="220" width="370" height="40" as="geometry" />
        </mxCell>
        <mxCell id="OHMnWLt_MxitojmKM6Za-30" value="&lt;b&gt;FightAutomationBridge&lt;br&gt;&lt;/b&gt;(CCIP to automate fighting to cheaper blockchains)" style="whiteSpace=wrap;html=1;aspect=fixed;" vertex="1" parent="1">
          <mxGeometry x="15" y="450" width="140" height="140" as="geometry" />
        </mxCell>
        <mxCell id="OHMnWLt_MxitojmKM6Za-31" value="" style="endArrow=none;dashed=1;html=1;rounded=0;" edge="1" parent="1" source="OHMnWLt_MxitojmKM6Za-3">
          <mxGeometry width="50" height="50" relative="1" as="geometry">
            <mxPoint y="920" as="sourcePoint" />
            <mxPoint x="850" y="920" as="targetPoint" />
          </mxGeometry>
        </mxCell>
        <mxCell id="OHMnWLt_MxitojmKM6Za-32" value="&lt;font style=&quot;font-size: 22px;&quot;&gt;Cheaper Chain (Avalanche)&lt;/font&gt;" style="text;html=1;align=center;verticalAlign=middle;resizable=0;points=[];autosize=1;strokeColor=none;fillColor=none;" vertex="1" parent="1">
          <mxGeometry x="170" y="940" width="290" height="40" as="geometry" />
        </mxCell>
        <mxCell id="OHMnWLt_MxitojmKM6Za-34" value="&lt;b&gt;FightAutomationContract&lt;br&gt;&lt;/b&gt;(Uses&amp;nbsp;chainlink automation and keeps track of funds)" style="whiteSpace=wrap;html=1;aspect=fixed;" vertex="1" parent="1">
          <mxGeometry x="30" y="960" width="130" height="130" as="geometry" />
        </mxCell>
        <mxCell id="OHMnWLt_MxitojmKM6Za-35" value="" style="endArrow=classic;startArrow=classic;html=1;rounded=0;exitX=0.5;exitY=0;exitDx=0;exitDy=0;entryX=0;entryY=1;entryDx=0;entryDy=0;" edge="1" parent="1" source="OHMnWLt_MxitojmKM6Za-30" target="OHMnWLt_MxitojmKM6Za-2">
          <mxGeometry width="50" height="50" relative="1" as="geometry">
            <mxPoint x="490" y="660" as="sourcePoint" />
            <mxPoint x="120" y="570" as="targetPoint" />
          </mxGeometry>
        </mxCell>
        <mxCell id="OHMnWLt_MxitojmKM6Za-37" value="" style="endArrow=none;dashed=1;html=1;rounded=0;" edge="1" parent="1" source="OHMnWLt_MxitojmKM6Za-5" target="OHMnWLt_MxitojmKM6Za-3">
          <mxGeometry width="50" height="50" relative="1" as="geometry">
            <mxPoint y="920" as="sourcePoint" />
            <mxPoint x="850" y="920" as="targetPoint" />
          </mxGeometry>
        </mxCell>
        <mxCell id="OHMnWLt_MxitojmKM6Za-3" value="&lt;b&gt;Fight Executor&lt;/b&gt;&lt;br&gt;&lt;br&gt;Chanlink Functions calls logic for fights and VRF for deciding winner&lt;br&gt;&lt;br&gt;(deployed in both chains)" style="whiteSpace=wrap;html=1;aspect=fixed;" vertex="1" parent="1">
          <mxGeometry x="690" y="840" width="140" height="140" as="geometry" />
        </mxCell>
        <mxCell id="OHMnWLt_MxitojmKM6Za-39" value="&lt;b&gt;DON&lt;/b&gt;" style="ellipse;whiteSpace=wrap;html=1;" vertex="1" parent="1">
          <mxGeometry x="690" y="100" width="120" height="80" as="geometry" />
        </mxCell>
        <mxCell id="OHMnWLt_MxitojmKM6Za-40" value="&lt;b&gt;AI-APIs&lt;/b&gt;" style="ellipse;whiteSpace=wrap;html=1;" vertex="1" parent="1">
          <mxGeometry x="570" y="10" width="120" height="80" as="geometry" />
        </mxCell>
        <mxCell id="OHMnWLt_MxitojmKM6Za-41" value="" style="endArrow=classic;startArrow=classic;html=1;rounded=0;entryX=0.5;entryY=1;entryDx=0;entryDy=0;exitX=0.75;exitY=0;exitDx=0;exitDy=0;" edge="1" parent="1" source="OHMnWLt_MxitojmKM6Za-3" target="OHMnWLt_MxitojmKM6Za-39">
          <mxGeometry width="50" height="50" relative="1" as="geometry">
            <mxPoint x="490" y="520" as="sourcePoint" />
            <mxPoint x="540" y="470" as="targetPoint" />
          </mxGeometry>
        </mxCell>
        <mxCell id="OHMnWLt_MxitojmKM6Za-42" value="" style="endArrow=classic;startArrow=classic;html=1;rounded=0;entryX=0.708;entryY=0.969;entryDx=0;entryDy=0;entryPerimeter=0;exitX=0.5;exitY=0;exitDx=0;exitDy=0;" edge="1" parent="1" source="OHMnWLt_MxitojmKM6Za-39" target="OHMnWLt_MxitojmKM6Za-40">
          <mxGeometry width="50" height="50" relative="1" as="geometry">
            <mxPoint x="490" y="240" as="sourcePoint" />
            <mxPoint x="540" y="190" as="targetPoint" />
          </mxGeometry>
        </mxCell>
        <mxCell id="OHMnWLt_MxitojmKM6Za-45" value="" style="endArrow=classic;startArrow=classic;html=1;rounded=0;exitX=1;exitY=0.5;exitDx=0;exitDy=0;entryX=0;entryY=1;entryDx=0;entryDy=0;" edge="1" parent="1" source="OHMnWLt_MxitojmKM6Za-34" target="OHMnWLt_MxitojmKM6Za-5">
          <mxGeometry width="50" height="50" relative="1" as="geometry">
            <mxPoint x="490" y="800" as="sourcePoint" />
            <mxPoint x="540" y="750" as="targetPoint" />
          </mxGeometry>
        </mxCell>
        <mxCell id="OHMnWLt_MxitojmKM6Za-46" value="" style="endArrow=none;dashed=1;html=1;rounded=0;" edge="1" parent="1" target="OHMnWLt_MxitojmKM6Za-5">
          <mxGeometry width="50" height="50" relative="1" as="geometry">
            <mxPoint y="920" as="sourcePoint" />
            <mxPoint x="650" y="915" as="targetPoint" />
            <Array as="points">
              <mxPoint x="410" y="915" />
            </Array>
          </mxGeometry>
        </mxCell>
        <mxCell id="OHMnWLt_MxitojmKM6Za-5" value="&lt;b&gt;Fights Matchmaker&lt;br&gt;&lt;/b&gt;(Chainlink Automation and chainlink functions for matchmaking)&lt;br&gt;(deployed in both chains)" style="whiteSpace=wrap;html=1;aspect=fixed;" vertex="1" parent="1">
          <mxGeometry x="510" y="850" width="120" height="120" as="geometry" />
        </mxCell>
        <mxCell id="OHMnWLt_MxitojmKM6Za-47" value="" style="endArrow=classic;startArrow=classic;html=1;rounded=0;exitX=1;exitY=0.75;exitDx=0;exitDy=0;entryX=-0.007;entryY=0.9;entryDx=0;entryDy=0;entryPerimeter=0;" edge="1" parent="1" source="OHMnWLt_MxitojmKM6Za-5" target="OHMnWLt_MxitojmKM6Za-3">
          <mxGeometry width="50" height="50" relative="1" as="geometry">
            <mxPoint x="490" y="660" as="sourcePoint" />
            <mxPoint x="540" y="610" as="targetPoint" />
          </mxGeometry>
        </mxCell>
        <mxCell id="OHMnWLt_MxitojmKM6Za-48" value="&lt;b&gt;LendingMarket&lt;br&gt;&lt;/b&gt;(manages lending terms and logic: x% of wins go back after lending, duration of the lending etc)" style="whiteSpace=wrap;html=1;aspect=fixed;" vertex="1" parent="1">
          <mxGeometry x="220" y="495" width="110" height="110" as="geometry" />
        </mxCell>
        <mxCell id="OHMnWLt_MxitojmKM6Za-50" value="" style="endArrow=classic;startArrow=classic;html=1;rounded=0;exitX=1;exitY=0;exitDx=0;exitDy=0;entryX=0;entryY=1;entryDx=0;entryDy=0;" edge="1" parent="1" source="OHMnWLt_MxitojmKM6Za-48" target="OHMnWLt_MxitojmKM6Za-13">
          <mxGeometry width="50" height="50" relative="1" as="geometry">
            <mxPoint x="490" y="660" as="sourcePoint" />
            <mxPoint x="540" y="610" as="targetPoint" />
          </mxGeometry>
        </mxCell>
        <mxCell id="OHMnWLt_MxitojmKM6Za-51" value="" style="endArrow=classic;html=1;rounded=0;exitX=0.5;exitY=0;exitDx=0;exitDy=0;entryX=0.25;entryY=1;entryDx=0;entryDy=0;" edge="1" parent="1" source="OHMnWLt_MxitojmKM6Za-48" target="OHMnWLt_MxitojmKM6Za-2">
          <mxGeometry width="50" height="50" relative="1" as="geometry">
            <mxPoint x="490" y="660" as="sourcePoint" />
            <mxPoint x="540" y="610" as="targetPoint" />
          </mxGeometry>
        </mxCell>
        <mxCell id="OHMnWLt_MxitojmKM6Za-52" value="Vault&lt;br&gt;(keeps track of all funds from users)" style="whiteSpace=wrap;html=1;aspect=fixed;" vertex="1" parent="1">
          <mxGeometry x="650" y="550" width="110" height="110" as="geometry" />
        </mxCell>
        <mxCell id="OHMnWLt_MxitojmKM6Za-53" value="" style="endArrow=classic;html=1;rounded=0;exitX=1;exitY=0.5;exitDx=0;exitDy=0;entryX=0;entryY=0.5;entryDx=0;entryDy=0;" edge="1" parent="1" source="OHMnWLt_MxitojmKM6Za-48" target="OHMnWLt_MxitojmKM6Za-52">
          <mxGeometry width="50" height="50" relative="1" as="geometry">
            <mxPoint x="490" y="520" as="sourcePoint" />
            <mxPoint x="540" y="470" as="targetPoint" />
          </mxGeometry>
        </mxCell>
        <mxCell id="OHMnWLt_MxitojmKM6Za-54" value="" style="endArrow=classic;startArrow=classic;html=1;rounded=0;exitX=0.5;exitY=0;exitDx=0;exitDy=0;entryX=1;entryY=1;entryDx=0;entryDy=0;" edge="1" parent="1" source="OHMnWLt_MxitojmKM6Za-52" target="OHMnWLt_MxitojmKM6Za-13">
          <mxGeometry width="50" height="50" relative="1" as="geometry">
            <mxPoint x="490" y="520" as="sourcePoint" />
            <mxPoint x="540" y="470" as="targetPoint" />
          </mxGeometry>
        </mxCell>
        <mxCell id="OHMnWLt_MxitojmKM6Za-55" value="" style="endArrow=classic;startArrow=classic;html=1;rounded=0;exitX=0.75;exitY=0;exitDx=0;exitDy=0;entryX=0.306;entryY=1.006;entryDx=0;entryDy=0;entryPerimeter=0;" edge="1" parent="1" source="OHMnWLt_MxitojmKM6Za-34" target="OHMnWLt_MxitojmKM6Za-39">
          <mxGeometry width="50" height="50" relative="1" as="geometry">
            <mxPoint x="490" y="660" as="sourcePoint" />
            <mxPoint x="540" y="610" as="targetPoint" />
          </mxGeometry>
        </mxCell>
        <mxCell id="OHMnWLt_MxitojmKM6Za-56" value="" style="endArrow=classic;startArrow=classic;html=1;rounded=0;exitX=0.5;exitY=0;exitDx=0;exitDy=0;entryX=0;entryY=1;entryDx=0;entryDy=0;" edge="1" parent="1" source="OHMnWLt_MxitojmKM6Za-10" target="OHMnWLt_MxitojmKM6Za-17">
          <mxGeometry width="50" height="50" relative="1" as="geometry">
            <mxPoint x="490" y="380" as="sourcePoint" />
            <mxPoint x="540" y="330" as="targetPoint" />
          </mxGeometry>
        </mxCell>
        <mxCell id="OHMnWLt_MxitojmKM6Za-57" value="&lt;b&gt;IPFS&lt;/b&gt;" style="ellipse;whiteSpace=wrap;html=1;" vertex="1" parent="1">
          <mxGeometry x="730" y="10" width="110" height="70" as="geometry" />
        </mxCell>
        <mxCell id="OHMnWLt_MxitojmKM6Za-58" value="" style="endArrow=classic;startArrow=classic;html=1;rounded=0;entryX=1;entryY=1;entryDx=0;entryDy=0;exitX=1;exitY=0.5;exitDx=0;exitDy=0;" edge="1" parent="1" source="OHMnWLt_MxitojmKM6Za-39" target="OHMnWLt_MxitojmKM6Za-57">
          <mxGeometry width="50" height="50" relative="1" as="geometry">
            <mxPoint x="490" y="240" as="sourcePoint" />
            <mxPoint x="540" y="190" as="targetPoint" />
          </mxGeometry>
        </mxCell>
        <mxCell id="OHMnWLt_MxitojmKM6Za-59" value="" style="endArrow=classic;startArrow=classic;html=1;rounded=0;exitX=0.993;exitY=0.569;exitDx=0;exitDy=0;exitPerimeter=0;entryX=0;entryY=0.5;entryDx=0;entryDy=0;" edge="1" parent="1" source="OHMnWLt_MxitojmKM6Za-2" target="OHMnWLt_MxitojmKM6Za-39">
          <mxGeometry width="50" height="50" relative="1" as="geometry">
            <mxPoint x="490" y="380" as="sourcePoint" />
            <mxPoint x="540" y="330" as="targetPoint" />
          </mxGeometry>
        </mxCell>
        <mxCell id="OHMnWLt_MxitojmKM6Za-60" value="" style="endArrow=classic;startArrow=classic;html=1;rounded=0;exitX=1;exitY=0.5;exitDx=0;exitDy=0;" edge="1" parent="1" source="OHMnWLt_MxitojmKM6Za-30" target="OHMnWLt_MxitojmKM6Za-39">
          <mxGeometry width="50" height="50" relative="1" as="geometry">
            <mxPoint x="490" y="520" as="sourcePoint" />
            <mxPoint x="540" y="470" as="targetPoint" />
          </mxGeometry>
        </mxCell>
      </root>
    </mxGraphModel>
  </diagram>
</mxfile>
